<svg width="16" height="20" viewBox="0 0 16 20" fill="none" xmlns="http://www.w3.org/2000/svg">
<path fill-rule="evenodd" clip-rule="evenodd" d="M9.05556 1.01266C9.05556 0.744085 8.94439 0.486511 8.74649 0.296601C8.5486 0.10669 8.2802 0 8.00034 0C7.72048 0 7.45208 0.10669 7.25418 0.296601C7.05629 0.486511 6.94511 0.744085 6.94511 1.01266V1.77215H6.35735C5.22618 1.77208 4.13751 2.18571 3.31295 2.92885C2.48839 3.67198 1.98995 4.68875 1.91908 5.77215L1.68587 9.35089C1.59572 10.7152 1.11842 12.0298 0.305642 13.1524C0.137474 13.3844 0.0347203 13.6541 0.00737448 13.9355C-0.0199714 14.2169 0.029021 14.5002 0.149587 14.758C0.270153 15.0158 0.458189 15.2393 0.695407 15.4067C0.932626 15.5742 1.21095 15.6798 1.50332 15.7134L5.09847 16.1266V17.2152C5.09847 17.9538 5.4042 18.6621 5.94841 19.1843C6.49261 19.7066 7.23071 20 8.00034 20C8.76996 20 9.50806 19.7066 10.0523 19.1843C10.5965 18.6621 10.9022 17.9538 10.9022 17.2152V16.1266L14.4974 15.7124C14.7896 15.6787 15.0677 15.573 15.3048 15.4057C15.5418 15.2383 15.7298 15.015 15.8503 14.7573C15.9708 14.4997 16.0199 14.2165 15.9927 13.9353C15.9655 13.654 15.8629 13.3844 15.695 13.1524C14.8823 12.0298 14.405 10.7152 14.3148 9.35089L14.0816 5.77316C14.011 4.68958 13.5127 3.67256 12.6881 2.92922C11.8635 2.18587 10.7747 1.7721 9.64332 1.77215H9.05556V1.01266ZM6.35735 3.29114C5.6288 3.29105 4.9276 3.55744 4.39651 4.03606C3.86543 4.51468 3.54439 5.16955 3.49875 5.86734L3.2666 9.44608C3.15811 11.0873 2.58373 12.6688 1.60568 14.0192C1.59351 14.036 1.58607 14.0555 1.58408 14.0759C1.5821 14.0962 1.58563 14.1167 1.59434 14.1354C1.60305 14.154 1.61664 14.1702 1.63379 14.1823C1.65094 14.1944 1.67106 14.2021 1.69221 14.2046L5.63558 14.6592C7.20681 14.8395 8.79387 14.8395 10.3651 14.6592L14.3085 14.2046C14.3296 14.2021 14.3497 14.1944 14.3669 14.1823C14.384 14.1702 14.3976 14.154 14.4063 14.1354C14.415 14.1167 14.4186 14.0962 14.4166 14.0759C14.4146 14.0555 14.4072 14.036 14.395 14.0192C13.4173 12.6687 12.8433 11.0872 12.7351 9.44608L12.5019 5.86734C12.4563 5.16955 12.1352 4.51468 11.6042 4.03606C11.0731 3.55744 10.3719 3.29105 9.64332 3.29114H6.35735ZM8.00034 18.481C7.27223 18.481 6.68131 17.9139 6.68131 17.2152V16.4557H9.31937V17.2152C9.31937 17.9139 8.72844 18.481 8.00034 18.481Z" fill="#505050"/>
</svg>
