<svg width="18" height="18" viewBox="0 0 18 18" fill="none" xmlns="http://www.w3.org/2000/svg">
<path d="M11 7L8.75 9.25M11 7L8.75 4.75M11 7H6.9C4.66 7 3.54 7 2.684 7.436C1.93139 7.81949 1.31949 8.43139 0.936 9.184C0.5 10.04 0.5 11.16 0.5 13.4V13.75" stroke="#535862" stroke-linecap="round" stroke-linejoin="round"/>
<path d="M16.32 5.25007H13C12.7348 5.25007 12.4804 5.14471 12.2929 4.95718C12.1054 4.76964 12 4.51529 12 4.25007V0.930069C12.373 1.10007 12.652 1.40207 12.937 1.68707L15.563 4.31307C15.848 4.59807 16.151 4.87707 16.32 5.25007Z" fill="#535862"/>
<path d="M3.75 6.75007C3.75 6.94898 3.82902 7.13974 3.96967 7.2804C4.11032 7.42105 4.30109 7.50007 4.5 7.50007C4.69891 7.50007 4.88968 7.42105 5.03033 7.2804C5.17098 7.13974 5.25 6.94898 5.25 6.75007H3.75ZM5.25 10.7501C5.25 10.5512 5.17098 10.3604 5.03033 10.2197C4.88968 10.0791 4.69891 10.0001 4.5 10.0001C4.30109 10.0001 4.11032 10.0791 3.96967 10.2197C3.82902 10.3604 3.75 10.5512 3.75 10.7501H5.25ZM16.32 5.25007V6.00007C16.4455 6.00008 16.5689 5.96861 16.6791 5.90856C16.7892 5.8485 16.8826 5.76176 16.9505 5.6563C17.0185 5.55083 17.0589 5.43 17.0681 5.30487C17.0772 5.17974 17.0549 5.05431 17.003 4.94007L16.32 5.25007ZM12 0.930066L12.31 0.247067C12.1958 0.195208 12.0703 0.172839 11.9452 0.182007C11.8201 0.191174 11.6992 0.231587 11.5938 0.299543C11.4883 0.367499 11.4016 0.460828 11.3415 0.570984C11.2815 0.68114 11.25 0.804602 11.25 0.930066H12ZM13.3 16.0001H7.7V17.5001H13.3V16.0001ZM7.7 1.50007H10.675V6.66669e-05H7.7V1.50007ZM15.75 6.57507V13.5501H17.25V6.57507H15.75ZM12.407 2.21707L15.032 4.84307L16.093 3.78307L13.468 1.15707L12.407 2.21707ZM5.25 6.75007V3.95007H3.75V6.75007H5.25ZM5.25 13.5501V10.7501H3.75V13.5501H5.25ZM15.032 4.84307C15.404 5.21407 15.499 5.31707 15.566 5.42507L16.845 4.64207C16.664 4.34607 16.414 4.10407 16.093 3.78307L15.032 4.84307ZM13.468 1.15707C13.147 0.837067 12.904 0.587067 12.608 0.405067L11.825 1.68507C11.933 1.75107 12.035 1.84507 12.407 2.21707L13.468 1.15707ZM10.675 1.50007C11.252 1.50007 11.552 1.51807 11.825 1.68507L12.608 0.405067C11.921 -0.0149333 11.191 6.66669e-05 10.674 6.66669e-05L10.675 1.50007ZM17.25 6.57507C17.25 6.05907 17.266 5.32907 16.845 4.64207L15.566 5.42507C15.734 5.69807 15.75 5.99807 15.75 6.57507H17.25ZM16.32 4.50007H13V6.00007H16.32V4.50007ZM12.75 4.25007V0.930066H11.25V4.25007H12.75ZM13 4.50007C12.9337 4.50007 12.8701 4.47373 12.8232 4.42684C12.7763 4.37996 12.75 4.31637 12.75 4.25007H11.25C11.25 5.21607 12.034 6.00007 13 6.00007V4.50007ZM11.69 1.61207C11.91 1.71207 12.081 1.89107 12.407 2.21707L13.467 1.15707C13.222 0.911067 12.836 0.487067 12.31 0.247067L11.69 1.61207ZM15.032 4.84307C15.358 5.16907 15.537 5.34007 15.638 5.56107L17.003 4.94007C16.763 4.41507 16.339 4.02907 16.093 3.78307L15.032 4.84307ZM7.7 16.0001C6.571 16.0001 6.034 15.8131 5.748 15.5371C5.468 15.2671 5.25 14.7371 5.25 13.5501H3.75C3.75 14.8341 3.968 15.9041 4.707 16.6161C5.439 17.3231 6.502 17.5001 7.7 17.5001V16.0001ZM15.75 13.5501C15.75 14.6791 15.563 15.2161 15.287 15.5021C15.017 15.7821 14.487 16.0001 13.3 16.0001V17.5001C14.584 17.5001 15.654 17.2821 16.366 16.5431C17.073 15.8111 17.25 14.7481 17.25 13.5501H15.75ZM5.25 3.95007C5.25 2.82107 5.437 2.28407 5.713 1.99807C5.983 1.71807 6.513 1.50007 7.7 1.50007V6.66669e-05C6.416 6.66669e-05 5.346 0.218066 4.633 0.957066C3.927 1.68907 3.75 2.75207 3.75 3.95007H5.25Z" fill="#535862"/>
</svg>
