<svg width="16" height="16" viewBox="0 0 16 16" fill="none" xmlns="http://www.w3.org/2000/svg">
<path d="M1.52778 0.75H13.9722C14.1785 0.75 14.3763 0.833244 14.5222 0.981419C14.6681 1.12959 14.75 1.33056 14.75 1.54011V2.79323C14.75 3.00277 14.668 3.2037 14.5221 3.35184L9.53344 8.41963C9.38757 8.56777 9.3056 8.76871 9.30556 8.97824V13.9599C9.30555 14.08 9.2786 14.1985 9.22674 14.3065C9.17488 14.4144 9.09948 14.5089 9.00628 14.5828C8.91307 14.6567 8.80451 14.708 8.68885 14.7329C8.57318 14.7577 8.45346 14.7555 8.33878 14.7263L6.78322 14.3313C6.61503 14.2885 6.46574 14.1898 6.35907 14.0509C6.25239 13.9121 6.19445 13.741 6.19444 13.5649V8.97824C6.1944 8.76871 6.11243 8.56777 5.96656 8.41963L0.977889 3.35184C0.832017 3.2037 0.750044 3.00277 0.75 2.79323V1.54011C0.75 1.33056 0.831944 1.12959 0.977806 0.981419C1.12367 0.833244 1.3215 0.75 1.52778 0.75Z" stroke="#535862" stroke-width="1.5" stroke-linecap="round" stroke-linejoin="round"/>
</svg>
