<svg width="19" height="18" viewBox="0 0 19 18" fill="none" xmlns="http://www.w3.org/2000/svg">
<path d="M0.5 7.00006L2.75 9.25006M0.5 7.00006L2.75 4.75006M0.5 7.00006H4.6C6.84 7.00006 7.96 7.00006 8.816 7.43606C9.56861 7.81955 10.1805 8.43145 10.564 9.18406C11 10.0401 11 11.1601 11 13.4001V13.7501" stroke="#535862" stroke-linecap="round" stroke-linejoin="round"/>
<path d="M17.32 5.25007H14C13.7348 5.25007 13.4804 5.14471 13.2929 4.95718C13.1054 4.76964 13 4.51529 13 4.25007V0.930069C13.373 1.10007 13.652 1.40207 13.937 1.68707L16.563 4.31307C16.848 4.59807 17.151 4.87707 17.32 5.25007Z" fill="#535862"/>
<path d="M4.75 6.75007C4.75 6.94898 4.82902 7.13974 4.96967 7.2804C5.11032 7.42105 5.30109 7.50007 5.5 7.50007C5.69891 7.50007 5.88968 7.42105 6.03033 7.2804C6.17098 7.13974 6.25 6.94898 6.25 6.75007H4.75ZM6.25 10.7501C6.25 10.5512 6.17098 10.3604 6.03033 10.2197C5.88968 10.0791 5.69891 10.0001 5.5 10.0001C5.30109 10.0001 5.11032 10.0791 4.96967 10.2197C4.82902 10.3604 4.75 10.5512 4.75 10.7501H6.25ZM17.32 5.25007V6.00007C17.4455 6.00008 17.5689 5.96861 17.6791 5.90856C17.7892 5.8485 17.8826 5.76176 17.9505 5.6563C18.0185 5.55083 18.0589 5.43 18.0681 5.30487C18.0772 5.17974 18.0549 5.05431 18.003 4.94007L17.32 5.25007ZM13 0.930066L13.31 0.247067C13.1958 0.195208 13.0703 0.172839 12.9452 0.182007C12.8201 0.191174 12.6992 0.231587 12.5938 0.299543C12.4883 0.367499 12.4016 0.460828 12.3415 0.570984C12.2815 0.68114 12.25 0.804602 12.25 0.930066H13ZM14.3 16.0001H8.7V17.5001H14.3V16.0001ZM8.7 1.50007H11.675V6.66669e-05H8.7V1.50007ZM16.75 6.57507V13.5501H18.25V6.57507H16.75ZM13.407 2.21707L16.032 4.84307L17.093 3.78307L14.468 1.15707L13.407 2.21707ZM6.25 6.75007V3.95007H4.75V6.75007H6.25ZM6.25 13.5501V10.7501H4.75V13.5501H6.25ZM16.032 4.84307C16.404 5.21407 16.499 5.31707 16.566 5.42507L17.845 4.64207C17.664 4.34607 17.414 4.10407 17.093 3.78307L16.032 4.84307ZM14.468 1.15707C14.147 0.837067 13.904 0.587067 13.608 0.405067L12.825 1.68507C12.933 1.75107 13.035 1.84507 13.407 2.21707L14.468 1.15707ZM11.675 1.50007C12.252 1.50007 12.552 1.51807 12.825 1.68507L13.608 0.405067C12.921 -0.0149333 12.191 6.66669e-05 11.674 6.66669e-05L11.675 1.50007ZM18.25 6.57507C18.25 6.05907 18.266 5.32907 17.845 4.64207L16.566 5.42507C16.734 5.69807 16.75 5.99807 16.75 6.57507H18.25ZM17.32 4.50007H14V6.00007H17.32V4.50007ZM13.75 4.25007V0.930066H12.25V4.25007H13.75ZM14 4.50007C13.9337 4.50007 13.8701 4.47373 13.8232 4.42684C13.7763 4.37996 13.75 4.31637 13.75 4.25007H12.25C12.25 5.21607 13.034 6.00007 14 6.00007V4.50007ZM12.69 1.61207C12.91 1.71207 13.081 1.89107 13.407 2.21707L14.467 1.15707C14.222 0.911067 13.836 0.487067 13.31 0.247067L12.69 1.61207ZM16.032 4.84307C16.358 5.16907 16.537 5.34007 16.638 5.56107L18.003 4.94007C17.763 4.41507 17.339 4.02907 17.093 3.78307L16.032 4.84307ZM8.7 16.0001C7.571 16.0001 7.034 15.8131 6.748 15.5371C6.468 15.2671 6.25 14.7371 6.25 13.5501H4.75C4.75 14.8341 4.968 15.9041 5.707 16.6161C6.439 17.3231 7.502 17.5001 8.7 17.5001V16.0001ZM16.75 13.5501C16.75 14.6791 16.563 15.2161 16.287 15.5021C16.017 15.7821 15.487 16.0001 14.3 16.0001V17.5001C15.584 17.5001 16.654 17.2821 17.366 16.5431C18.073 15.8111 18.25 14.7481 18.25 13.5501H16.75ZM6.25 3.95007C6.25 2.82107 6.437 2.28407 6.713 1.99807C6.983 1.71807 7.513 1.50007 8.7 1.50007V6.66669e-05C7.416 6.66669e-05 6.346 0.218066 5.633 0.957066C4.927 1.68907 4.75 2.75207 4.75 3.95007H6.25Z" fill="#535862"/>
</svg>
