<svg width="20" height="20" viewBox="0 0 20 20" fill="none" xmlns="http://www.w3.org/2000/svg">
<path fill-rule="evenodd" clip-rule="evenodd" d="M12.5893 13.8071C11.0416 15.0438 9.0791 15.6409 7.10492 15.4758C5.13075 15.3106 3.29473 14.3958 1.97395 12.9192C0.653174 11.4426 -0.0520929 9.51621 0.00300089 7.5358C0.0580947 5.55538 0.869366 3.67123 2.27019 2.27032C3.67102 0.869416 5.55506 0.058098 7.53536 0.00300106C9.51567 -0.0520959 11.4419 0.653211 12.9184 1.97406C14.395 3.29492 15.3098 5.13104 15.4749 7.10533C15.64 9.07962 15.0429 11.0422 13.8063 12.59L19.7259 18.5089C19.8105 18.5877 19.8784 18.6828 19.9255 18.7884C19.9725 18.894 19.9978 19.008 19.9999 19.1237C20.0019 19.2393 19.9806 19.3541 19.9373 19.4614C19.894 19.5686 19.8296 19.666 19.7478 19.7478C19.666 19.8296 19.5686 19.894 19.4614 19.9373C19.3542 19.9806 19.2393 20.0019 19.1237 19.9999C19.0081 19.9978 18.8941 19.9725 18.7885 19.9255C18.6828 19.8784 18.5878 19.8105 18.5089 19.7259L12.5893 13.8071ZM3.49046 12.0136C2.64779 11.1708 2.07386 10.0971 1.84121 8.92817C1.60855 7.75926 1.72761 6.54761 2.18335 5.44635C2.63908 4.34509 3.41102 3.40365 4.40162 2.74101C5.39222 2.07837 6.557 1.72428 7.74878 1.72348C8.94055 1.72267 10.1058 2.0752 11.0973 2.73651C12.0888 3.39781 12.862 4.33821 13.3192 5.43886C13.7764 6.5395 13.8971 7.75099 13.666 8.92022C13.435 10.0894 12.8625 11.1639 12.0209 12.0079L12.0152 12.0136L12.0095 12.0182C10.8787 13.1464 9.34633 13.7796 7.74901 13.7788C6.15169 13.7779 4.62003 13.143 3.49046 12.0136Z" fill="#505050"/>
</svg>
