<svg width="20" height="22" viewBox="0 0 20 22" fill="none" xmlns="http://www.w3.org/2000/svg">
<path d="M9.98758 0.75H9.54758C9.01715 0.75 8.50844 0.960714 8.13337 1.33579C7.75829 1.71086 7.54758 2.21957 7.54758 2.75V2.93C7.54722 3.28073 7.45464 3.62519 7.27912 3.92884C7.1036 4.23248 6.85132 4.48464 6.54758 4.66L6.11758 4.91C5.81354 5.08554 5.46865 5.17795 5.11758 5.17795C4.76651 5.17795 4.42162 5.08554 4.11758 4.91L3.96758 4.83C3.50864 4.56526 2.96342 4.49344 2.45158 4.63031C1.93975 4.76717 1.50313 5.10154 1.23758 5.56L1.01758 5.94C0.752843 6.39893 0.681024 6.94416 0.817888 7.456C0.954752 7.96783 1.28912 8.40445 1.74758 8.67L1.89758 8.77C2.19986 8.94451 2.4512 9.19509 2.62663 9.49683C2.80206 9.79857 2.89547 10.141 2.89758 10.49V11C2.89898 11.3524 2.80723 11.699 2.63162 12.0045C2.45602 12.3101 2.20279 12.5638 1.89758 12.74L1.74758 12.83C1.28912 13.0956 0.954752 13.5322 0.817888 14.044C0.681024 14.5558 0.752843 15.1011 1.01758 15.56L1.23758 15.94C1.50313 16.3985 1.93975 16.7328 2.45158 16.8697C2.96342 17.0066 3.50864 16.9347 3.96758 16.67L4.11758 16.59C4.42162 16.4145 4.76651 16.3221 5.11758 16.3221C5.46865 16.3221 5.81354 16.4145 6.11758 16.59L6.54758 16.84C6.85132 17.0154 7.1036 17.2675 7.27912 17.5712C7.45464 17.8748 7.54722 18.2193 7.54758 18.57V18.75C7.54758 19.2804 7.75829 19.7891 8.13337 20.1642C8.50844 20.5393 9.01715 20.75 9.54758 20.75H9.98758C10.518 20.75 11.0267 20.5393 11.4018 20.1642C11.7769 19.7891 11.9876 19.2804 11.9876 18.75V18.57C11.9879 18.2193 12.0805 17.8748 12.256 17.5712C12.4316 17.2675 12.6838 17.0154 12.9876 16.84L13.4176 16.59C13.7216 16.4145 14.0665 16.3221 14.4176 16.3221C14.7687 16.3221 15.1135 16.4145 15.4176 16.59L15.5676 16.67C16.0265 16.9347 16.5717 17.0066 17.0836 16.8697C17.5954 16.7328 18.032 16.3985 18.2976 15.94L18.5176 15.55C18.7823 15.0911 18.8541 14.5458 18.7173 14.034C18.5804 13.5222 18.246 13.0856 17.7876 12.82L17.6376 12.74C17.3324 12.5638 17.0791 12.3101 16.9035 12.0045C16.7279 11.699 16.6362 11.3524 16.6376 11V10.5C16.6362 10.1476 16.7279 9.80105 16.9035 9.49549C17.0791 9.18994 17.3324 8.93621 17.6376 8.76L17.7876 8.67C18.246 8.40445 18.5804 7.96783 18.7173 7.456C18.8541 6.94416 18.7823 6.39893 18.5176 5.94L18.2976 5.56C18.032 5.10154 17.5954 4.76717 17.0836 4.63031C16.5717 4.49344 16.0265 4.56526 15.5676 4.83L15.4176 4.91C15.1135 5.08554 14.7687 5.17795 14.4176 5.17795C14.0665 5.17795 13.7216 5.08554 13.4176 4.91L12.9876 4.66C12.6838 4.48464 12.4316 4.23248 12.256 3.92884C12.0805 3.62519 11.9879 3.28073 11.9876 2.93V2.75C11.9876 2.21957 11.7769 1.71086 11.4018 1.33579C11.0267 0.960714 10.518 0.75 9.98758 0.75Z" stroke="#505050" stroke-width="1.5" stroke-linecap="round" stroke-linejoin="round"/>
<path d="M9.76758 13.75C11.4244 13.75 12.7676 12.4069 12.7676 10.75C12.7676 9.09315 11.4244 7.75 9.76758 7.75C8.11072 7.75 6.76758 9.09315 6.76758 10.75C6.76758 12.4069 8.11072 13.75 9.76758 13.75Z" stroke="#505050" stroke-width="1.5" stroke-linecap="round" stroke-linejoin="round"/>
</svg>
