<svg width="21" height="16" viewBox="0 0 21 16" fill="none" xmlns="http://www.w3.org/2000/svg">
<path d="M15.7497 0L15.6497 0.00699997C15.4698 0.0312051 15.3048 0.119846 15.1853 0.256479C15.0657 0.393112 14.9998 0.568462 14.9997 0.75V13.442L11.7797 10.224L11.6957 10.152C11.5435 10.0389 11.3541 9.98759 11.1656 10.0085C10.9771 10.0294 10.8036 10.1209 10.6799 10.2647C10.5562 10.4084 10.4915 10.5937 10.4989 10.7832C10.5063 10.9727 10.5852 11.1523 10.7197 11.286L15.2237 15.786L15.3077 15.858C15.4522 15.9647 15.6302 16.016 15.8093 16.0026C15.9884 15.9892 16.1567 15.912 16.2837 15.785L20.7807 11.285L20.8527 11.201C20.9597 11.0564 21.0112 10.8783 20.9978 10.6989C20.9844 10.5196 20.907 10.351 20.7797 10.224L20.6957 10.152C20.5512 10.045 20.373 9.99353 20.1937 10.0069C20.0143 10.0203 19.8458 10.0977 19.7187 10.225L16.4997 13.446V0.75L16.4937 0.648C16.4691 0.468446 16.3803 0.303892 16.2437 0.184767C16.1071 0.0656429 15.931 7.6429e-06 15.7497 0ZM4.71473 0.22L0.219732 4.715L0.146732 4.799C0.0400185 4.94347 -0.0113063 5.12144 0.00209014 5.30055C0.0154866 5.47966 0.0927148 5.64801 0.219732 5.775L0.303732 5.848C0.448203 5.95471 0.626172 6.00604 0.805281 5.99264C0.98439 5.97925 1.15274 5.90202 1.27973 5.775L4.49673 2.557V15.255L4.50473 15.357C4.52938 15.5366 4.61821 15.7011 4.7548 15.8202C4.89139 15.9394 5.06649 16.005 5.24773 16.005L5.34873 15.998C5.52847 15.9736 5.69326 15.8848 5.81259 15.7482C5.93192 15.6116 5.99769 15.4364 5.99773 15.255L5.99673 2.559L9.21973 5.776L9.30373 5.848C9.45604 5.95971 9.64489 6.00985 9.83255 5.98838C10.0202 5.96691 10.1929 5.87543 10.316 5.7322C10.4392 5.58897 10.5037 5.40456 10.4968 5.2158C10.4899 5.02704 10.412 4.84784 10.2787 4.714L5.77473 0.22L5.68973 0.148C5.54526 0.0412859 5.36729 -0.0100386 5.18818 0.00335789C5.00907 0.0167544 4.84072 0.0939825 4.71373 0.221" fill="#535862"/>
</svg>
